<svg aria-hidden="true" style="position: absolute; width: 0; height: 0; overflow: hidden;" version="1.1" xmlns="http://www.w3.org/2000/svg" xmlns:xlink="http://www.w3.org/1999/xlink">
<path fill="#475467" style="fill: var(--color1, #475467)" d="M135.393 7.187h-3.608c-0.019-0.223-0.097-0.414-0.235-0.575-0.137-0.161-0.315-0.284-0.532-0.369-0.214-0.090-0.45-0.135-0.711-0.135-0.336 0-0.625 0.062-0.866 0.185s-0.36 0.298-0.355 0.526c-0.005 0.161 0.064 0.31 0.206 0.447 0.146 0.137 0.428 0.244 0.845 0.32l2.216 0.398c1.117 0.204 1.948 0.547 2.493 1.030 0.549 0.478 0.826 1.12 0.831 1.925-0.005 0.777-0.237 1.451-0.696 2.024-0.455 0.568-1.078 1.008-1.868 1.321-0.786 0.308-1.684 0.462-2.692 0.462-1.667 0-2.971-0.341-3.913-1.023-0.938-0.682-1.461-1.581-1.57-2.699h3.892c0.052 0.346 0.223 0.613 0.511 0.803 0.294 0.185 0.663 0.277 1.108 0.277 0.36 0 0.656-0.062 0.888-0.185 0.237-0.123 0.358-0.298 0.362-0.526-0.004-0.208-0.109-0.374-0.312-0.497-0.199-0.123-0.512-0.223-0.938-0.298l-1.931-0.341c-1.113-0.194-1.946-0.563-2.5-1.108s-0.829-1.245-0.824-2.102c-0.005-0.758 0.194-1.399 0.596-1.925 0.407-0.53 0.987-0.933 1.74-1.207 0.758-0.279 1.655-0.419 2.692-0.419 1.577 0 2.82 0.327 3.729 0.98 0.914 0.653 1.394 1.558 1.442 2.713z"></path>
<path fill="#475467" style="fill: var(--color1, #475467)" d="M116.415 11.96l0.028-4.659h0.512l2.642-3.665h4.403l-4.432 5.71h-1.108l-2.045 2.614zM112.892 14.546v-14.546h3.921v14.546h-3.921zM119.625 14.546l-2.5-4.318 2.557-2.784 4.432 7.102h-4.489z"></path>
<path fill="#475467" style="fill: var(--color1, #475467)" d="M105.619 14.744c-1.184 0-2.197-0.234-3.040-0.703-0.843-0.473-1.489-1.132-1.939-1.974-0.45-0.848-0.675-1.83-0.675-2.947s0.225-2.098 0.675-2.94c0.45-0.848 1.096-1.506 1.939-1.974 0.843-0.473 1.856-0.71 3.040-0.71 1.070 0 1.996 0.194 2.777 0.582 0.786 0.384 1.394 0.928 1.825 1.634 0.431 0.701 0.649 1.525 0.654 2.472h-3.637c-0.052-0.573-0.218-1.009-0.497-1.307-0.275-0.303-0.63-0.455-1.065-0.455-0.341 0-0.64 0.099-0.895 0.298-0.256 0.194-0.455 0.49-0.597 0.888-0.142 0.393-0.213 0.888-0.213 1.484s0.071 1.094 0.213 1.491c0.142 0.393 0.341 0.689 0.597 0.888 0.255 0.194 0.554 0.291 0.895 0.291 0.288 0 0.544-0.066 0.767-0.199 0.222-0.137 0.402-0.336 0.539-0.597 0.143-0.265 0.228-0.587 0.256-0.966h3.637c-0.015 0.961-0.235 1.799-0.661 2.514-0.426 0.71-1.030 1.259-1.811 1.648-0.777 0.388-1.705 0.582-2.784 0.582z"></path>
<path fill="#475467" style="fill: var(--color1, #475467)" d="M94.049 9.773v-6.136h3.921v10.909h-3.722v-2.074h-0.114c-0.237 0.696-0.651 1.241-1.243 1.633-0.592 0.388-1.295 0.582-2.109 0.582-0.762 0-1.43-0.175-2.003-0.526-0.568-0.35-1.011-0.833-1.328-1.449-0.313-0.616-0.471-1.321-0.476-2.117v-6.96h3.92v6.136c0.005 0.54 0.142 0.964 0.412 1.271 0.275 0.308 0.658 0.462 1.151 0.462 0.327 0 0.608-0.069 0.845-0.206 0.242-0.142 0.426-0.341 0.554-0.597 0.132-0.26 0.197-0.571 0.192-0.93z"></path>
<path fill="#475467" style="fill: var(--color1, #475467)" d="M77.903 14.545v-10.909h3.807v2.074h0.114c0.199-0.767 0.514-1.328 0.945-1.683 0.436-0.355 0.945-0.533 1.527-0.533 0.171 0 0.339 0.014 0.504 0.043 0.17 0.024 0.334 0.059 0.49 0.107v3.345c-0.194-0.066-0.433-0.116-0.717-0.149s-0.528-0.050-0.731-0.050c-0.383 0-0.729 0.088-1.037 0.263-0.303 0.17-0.542 0.412-0.717 0.724-0.175 0.308-0.263 0.67-0.263 1.087v5.682h-3.92z"></path>
<path fill="#475467" style="fill: var(--color1, #475467)" d="M64.451 3.182v-3.182h12.642v3.182h-4.375v11.364h-3.892v-11.364h-4.375z"></path>
<path fill="#101828" style="fill: var(--color2, #101828)" d="M62.508 0v14.546h-3.92v-14.546h3.92z"></path>
<path fill="#101828" style="fill: var(--color2, #101828)" d="M51.247 14.744c-1.165 0-2.169-0.223-3.011-0.668-0.838-0.45-1.484-1.094-1.939-1.932-0.45-0.843-0.675-1.851-0.675-3.026 0-1.127 0.227-2.112 0.682-2.955s1.096-1.499 1.925-1.967 1.806-0.703 2.933-0.703c0.824 0 1.57 0.128 2.237 0.384s1.238 0.627 1.712 1.115c0.474 0.483 0.838 1.070 1.094 1.761s0.383 1.47 0.383 2.337v0.909h-9.744v-2.159h6.136c-0.005-0.313-0.085-0.587-0.241-0.824-0.152-0.241-0.358-0.428-0.618-0.561-0.256-0.137-0.547-0.206-0.874-0.206-0.317 0-0.608 0.069-0.874 0.206-0.265 0.133-0.478 0.317-0.639 0.554-0.156 0.237-0.239 0.514-0.249 0.831v2.33c0 0.35 0.073 0.663 0.22 0.938s0.358 0.49 0.632 0.646c0.275 0.156 0.606 0.234 0.994 0.234 0.27 0 0.516-0.038 0.739-0.114 0.227-0.076 0.421-0.185 0.582-0.327 0.161-0.147 0.279-0.322 0.355-0.525h3.58c-0.123 0.758-0.414 1.416-0.874 1.974-0.459 0.554-1.068 0.985-1.825 1.293-0.753 0.303-1.633 0.455-2.642 0.455z"></path>
<path fill="#101828" style="fill: var(--color2, #101828)" d="M44.836 3.636l-3.665 10.909h-4.545l-3.665-10.909h4.119l1.761 7.216h0.114l1.761-7.216h4.119z"></path>
<path fill="#101828" style="fill: var(--color2, #101828)" d="M25.056 14.716c-0.696 0-1.311-0.114-1.847-0.341-0.53-0.232-0.947-0.582-1.25-1.051s-0.454-1.065-0.454-1.79c0-0.597 0.102-1.106 0.305-1.527 0.204-0.426 0.488-0.774 0.852-1.044s0.788-0.476 1.271-0.618c0.488-0.142 1.013-0.234 1.577-0.277 0.611-0.047 1.101-0.104 1.47-0.17 0.374-0.071 0.644-0.168 0.81-0.291 0.166-0.128 0.249-0.296 0.249-0.504v-0.028c0-0.284-0.109-0.502-0.327-0.653s-0.497-0.227-0.838-0.227c-0.374 0-0.679 0.083-0.916 0.249-0.232 0.161-0.372 0.41-0.419 0.746h-3.608c0.047-0.663 0.258-1.274 0.632-1.832 0.379-0.563 0.93-1.013 1.655-1.349 0.724-0.341 1.629-0.511 2.713-0.511 0.781 0 1.482 0.092 2.102 0.277 0.62 0.18 1.148 0.433 1.584 0.76 0.436 0.322 0.767 0.701 0.994 1.136 0.232 0.431 0.348 0.9 0.348 1.406v7.472h-3.665v-1.534h-0.085c-0.218 0.407-0.483 0.736-0.795 0.987-0.308 0.251-0.66 0.433-1.058 0.547-0.393 0.114-0.826 0.171-1.3 0.171zM26.334 12.244c0.298 0 0.578-0.062 0.838-0.185 0.265-0.123 0.481-0.301 0.646-0.533s0.249-0.514 0.249-0.845v-0.909c-0.104 0.043-0.215 0.083-0.334 0.121-0.114 0.038-0.237 0.073-0.369 0.107-0.128 0.033-0.265 0.064-0.412 0.092-0.142 0.028-0.291 0.054-0.447 0.078-0.303 0.047-0.552 0.126-0.746 0.234-0.189 0.104-0.331 0.234-0.426 0.391-0.090 0.152-0.135 0.322-0.135 0.511 0 0.303 0.107 0.535 0.32 0.696s0.485 0.242 0.817 0.242z"></path>
<path fill="#101828" style="fill: var(--color2, #101828)" d="M13.452 14.545v-10.909h3.807v2.074h0.114c0.199-0.767 0.514-1.328 0.945-1.683 0.436-0.355 0.945-0.533 1.527-0.533 0.17 0 0.338 0.014 0.504 0.043 0.171 0.024 0.334 0.059 0.49 0.107v3.345c-0.194-0.066-0.433-0.116-0.717-0.149s-0.528-0.050-0.732-0.050c-0.384 0-0.729 0.088-1.037 0.263-0.303 0.17-0.542 0.412-0.717 0.724-0.175 0.308-0.263 0.67-0.263 1.087v5.682h-3.921z"></path>
<path fill="#101828" style="fill: var(--color2, #101828)" d="M0 3.182v-3.182h12.642v3.182h-4.375v11.364h-3.892v-11.364h-4.375z"></path>
</svg>
